<svg xmlns="http://www.w3.org/2000/svg" xmlns:xlink="http://www.w3.org/1999/xlink" version="1.1" baseProfile="tiny" id="Layer_1" x="0px" y="0px" width="100px" height="100px" viewBox="0 0 100 100" xml:space="preserve">
<path fill="#FFFFFF" d="M80.114,40.906h-5.781v-4.633c4-1.896,5-5.288,5-9.16c0-6.211-5.414-11.247-11.668-10.728  C64.192,9.481,57.108,5.094,49.298,5.094c-6.789,0-13.133,3.379-16.94,8.929c-2.076-1.072-4.378-1.631-6.739-1.631  c-8.118,0-14.549,6.604-14.549,14.721c0,4.436,2.263,8.409,5.263,11.11v50.003c0,3.986,2.887,6.68,6.873,6.68h43.625  c3.984,0,7.502-2.693,7.502-6.68v-2.32h5.781c7.01,0,12.219-6.342,12.219-13.352v-19.25C92.333,46.293,87.124,40.906,80.114,40.906z   M33.333,83.461c0,0.998-1.002,1.807-2,1.807c-0.998,0-2-0.809-2-1.807V52.932c0-0.998,1.002-1.807,2-1.807c0.998,0,2,0.809,2,1.807  V83.461z M47.333,83.461c0,0.998-1.002,1.807-2,1.807c-0.998,0-2-0.809-2-1.807V52.932c0-0.998,1.002-1.807,2-1.807  c0.998,0,2,0.809,2,1.807V83.461z M60.333,83.461c0,0.998-1,1.807-2,1.807c-0.998,0-2-0.809-2-1.807V52.932  c0-0.998,1.002-1.807,2-1.807c1,0,2,0.809,2,1.807V83.461z M68.431,34.265c-0.865,0-1.74-0.171-2.598-0.508  c-0.811-0.317-1.74-0.012-2.197,0.73c-3.115,5.031-8.488,8.035-14.373,8.035c-5.403,0-10.354-2.507-13.585-6.877  c-0.302-0.409-0.763-0.672-1.27-0.724c-0.062-0.007-0.123-0.01-0.183-0.01c-0.443,0-0.874,0.163-1.206,0.462  c-2.049,1.837-4.68,2.85-7.409,2.85c-6.125,0-11.107-4.985-11.107-11.111c0-6.124,4.983-11.107,11.107-11.107  c2.259,0,4.438,0.679,6.301,1.965c0.417,0.288,0.937,0.389,1.435,0.273c0.495-0.115,0.918-0.434,1.167-0.876  c2.995-5.342,8.647-8.66,14.75-8.66c6.828,0,12.949,4.068,15.595,10.363c0.336,0.803,1.197,1.25,2.049,1.066  c0.535-0.117,1.033-0.173,1.523-0.173c3.943,0,7.152,3.207,7.152,7.148C75.583,31.056,72.374,34.265,68.431,34.265z M81.333,72.555  c0,1.033-0.188,2.352-1.219,2.352h-5.781v-23h5.781c1.031,0,1.219,0.365,1.219,1.398V72.555z"/>
</svg>